<?xml version="1.0" standalone="no"?><!DOCTYPE svg PUBLIC "-//W3C//DTD SVG 1.1//EN" "http://www.w3.org/Graphics/SVG/1.1/DTD/svg11.dtd"><svg t="1780055477725" class="icon" viewBox="0 0 1024 1024" version="1.1" xmlns="http://www.w3.org/2000/svg" p-id="5691" data-darkreader-inline-fill="" xmlns:xlink="http://www.w3.org/1999/xlink" width="200" height="200"><path d="M917.333333 621.866667a5.333333 5.333333 0 0 0-5.333333-5.333334h-64a5.333333 5.333333 0 0 0-5.333333 5.333334v42.293333a5.333333 5.333333 0 0 1-5.333334 5.333333h-61.866666a106.666667 106.666667 0 0 0-72.533334-65.706666 2.08 2.08 0 0 1-0.533333-3.786667l202.133333-116.693333a5.333333 5.333333 0 0 0 1.973334-7.253334l-42.986667-74.666666a5.333333 5.333333 0 0 1 1.92-7.306667l22.773333-13.12a5.333333 5.333333 0 0 0 1.92-7.253333L764.8 156.8a5.333333 5.333333 0 0 0-7.466667-2.133333L80 545.706667a5.333333 5.333333 0 0 0-0.693333 8.746666l156.373333 126.24a5.333333 5.333333 0 0 0 5.973333 0.48L336 627.04c26.666667-15.36 69.013333-48 113.066667-48a83.093333 83.093333 0 0 1 54.346666 20.16 5.333333 5.333333 0 0 0 6.026667 0.533333l282.24-162.933333a5.333333 5.333333 0 0 1 7.2 1.973333l5.653333 9.866667a5.333333 5.333333 0 0 1-1.92 7.253333l-332.426666 192a5.333333 5.333333 0 0 1-7.253334-1.92l-28.533333-49.333333a5.333333 5.333333 0 0 0-7.253333-1.973333l-55.466667 32a5.333333 5.333333 0 0 0-1.92 7.253333l17.44 30.186667a5.333333 5.333333 0 0 1-1.973333 7.253333L362.666667 684.053333a5.333333 5.333333 0 0 1-7.2-1.973333l-17.333334-30.026667a5.333333 5.333333 0 0 0-7.253333-1.92l-55.466667 32a5.333333 5.333333 0 0 0-1.92 7.253334L328.213333 784a5.333333 5.333333 0 0 0 7.253334 1.92L422.56 736a5.333333 5.333333 0 0 1 7.253333 1.92l5.706667 9.866667a5.333333 5.333333 0 0 0 7.253333 1.973333l127.573334-73.653333a2.08 2.08 0 0 1 3.04 2.346666 106.026667 106.026667 0 0 0 45.173333 117.333334 97.6 97.6 0 0 0 93.066667 68.32H837.333333a5.333333 5.333333 0 0 1 5.333334 5.333333V912a5.333333 5.333333 0 0 0 5.333333 5.333333h64a5.333333 5.333333 0 0 0 5.333333-5.333333zM508.586667 514.08a5.333333 5.333333 0 0 1-4.48 0.32 156.266667 156.266667 0 0 0-55.093334-9.973333c-57.653333 0-105.44 29.92-137.013333 49.76-5.333333 3.146667-63.04 36.853333-63.04 36.853333a5.333333 5.333333 0 0 1-5.973333-0.48l-32-25.706667a5.333333 5.333333 0 0 1 0.693333-8.693333l518.4-299.306667a5.333333 5.333333 0 0 1 7.253333 1.92L788.16 346.666667a5.333333 5.333333 0 0 1-1.973333 7.253333z m198.986666 192.48a31.68 31.68 0 1 1-31.68-31.626667 31.68 31.68 0 0 1 31.68 31.626667z m129.76 83.2h-88.373333a2.506667 2.506667 0 0 1-1.76-4.373333 105.866667 105.866667 0 0 0 27.466667-39.68 2.56 2.56 0 0 1 2.346666-1.6H837.333333a5.333333 5.333333 0 0 1 5.333334 5.333333v35.04a5.333333 5.333333 0 0 1-5.333334 5.28z" p-id="5692" fill="#8a8a8a" data-darkreader-inline-fill="" style="--darkreader-inline-fill: var(--darkreader-background-8a8a8a, #5a6265);"></path><path d="M675.893333 706.56m-18.666666 0a18.666667 18.666667 0 1 0 37.333333 0 18.666667 18.666667 0 1 0-37.333333 0Z" p-id="5693" fill="#8a8a8a" data-darkreader-inline-fill="" style="--darkreader-inline-fill: var(--darkreader-text-8a8a8a, #9e9689);"></path></svg>